<svg width="169" height="55" viewBox="0 0 169 55" fill="none" xmlns="http://www.w3.org/2000/svg">
<g clip-path="url(#clip0_27_771)">
<path d="M152.5 0.5H16.5C7.66344 0.5 0.5 7.66344 0.5 16.5V38.5C0.5 47.3366 7.66344 54.5 16.5 54.5H152.5C161.337 54.5 168.5 47.3366 168.5 38.5V16.5C168.5 7.66344 161.337 0.5 152.5 0.5Z" fill="url(#paint0_linear_27_771)"/>
<path d="M65.3999 23.4999V16.9399H67.0399C68.0532 16.9399 68.8232 17.2199 69.3499 17.7799C69.8766 18.3399 70.1399 19.1432 70.1399 20.1899C70.1399 20.7099 70.0732 21.1766 69.9399 21.5899C69.8066 21.9966 69.6099 22.3432 69.3499 22.6299C69.0899 22.9099 68.7699 23.1266 68.3899 23.2799C68.0099 23.4266 67.5732 23.4999 67.0799 23.4999H65.3999ZM66.2299 22.8199H66.9799C67.7466 22.8199 68.3199 22.5899 68.6999 22.1299C69.0866 21.6699 69.2799 21.0232 69.2799 20.1899C69.2799 19.3566 69.0866 18.7199 68.6999 18.2799C68.3199 17.8399 67.7466 17.6199 66.9799 17.6199H66.2299V22.8199ZM73.3622 23.6199C73.0622 23.6199 72.7756 23.5632 72.5022 23.4499C72.2356 23.3366 71.9989 23.1732 71.7922 22.9599C71.5856 22.7399 71.4189 22.4732 71.2922 22.1599C71.1722 21.8399 71.1122 21.4799 71.1122 21.0799C71.1122 20.6732 71.1722 20.3132 71.2922 19.9999C71.4189 19.6799 71.5856 19.4099 71.7922 19.1899C71.9989 18.9699 72.2356 18.8032 72.5022 18.6899C72.7756 18.5766 73.0622 18.5199 73.3622 18.5199C73.6622 18.5199 73.9456 18.5766 74.2122 18.6899C74.4856 18.8032 74.7256 18.9699 74.9322 19.1899C75.1389 19.4099 75.3022 19.6799 75.4222 19.9999C75.5489 20.3132 75.6122 20.6732 75.6122 21.0799C75.6122 21.4799 75.5489 21.8399 75.4222 22.1599C75.3022 22.4732 75.1389 22.7399 74.9322 22.9599C74.7256 23.1732 74.4856 23.3366 74.2122 23.4499C73.9456 23.5632 73.6622 23.6199 73.3622 23.6199ZM73.3622 22.9399C73.5689 22.9399 73.7589 22.8966 73.9322 22.8099C74.1056 22.7166 74.2522 22.5899 74.3722 22.4299C74.4989 22.2632 74.5956 22.0666 74.6622 21.8399C74.7289 21.6132 74.7622 21.3599 74.7622 21.0799C74.7622 20.7999 74.7289 20.5466 74.6622 20.3199C74.5956 20.0866 74.4989 19.8866 74.3722 19.7199C74.2522 19.5532 74.1056 19.4266 73.9322 19.3399C73.7589 19.2466 73.5689 19.1999 73.3622 19.1999C73.1556 19.1999 72.9656 19.2466 72.7922 19.3399C72.6189 19.4266 72.4689 19.5532 72.3422 19.7199C72.2222 19.8866 72.1289 20.0866 72.0622 20.3199C71.9956 20.5466 71.9622 20.7999 71.9622 21.0799C71.9622 21.3599 71.9956 21.6132 72.0622 21.8399C72.1289 22.0666 72.2222 22.2632 72.3422 22.4299C72.4689 22.5899 72.6189 22.7166 72.7922 22.8099C72.9656 22.8966 73.1556 22.9399 73.3622 22.9399ZM77.6231 23.4999L76.2731 18.6399H77.1131L77.8331 21.4499C77.8864 21.6832 77.9364 21.9099 77.9831 22.1299C78.0298 22.3499 78.0764 22.5732 78.1231 22.7999H78.1631C78.2164 22.5732 78.2698 22.3499 78.3231 22.1299C78.3764 21.9032 78.4331 21.6766 78.4931 21.4499L79.2431 18.6399H80.0431L80.8031 21.4499C80.8631 21.6832 80.9198 21.9099 80.9731 22.1299C81.0331 22.3499 81.0898 22.5732 81.1431 22.7999H81.1831C81.2364 22.5732 81.2864 22.3499 81.3331 22.1299C81.3798 21.9099 81.4298 21.6832 81.4831 21.4499L82.1931 18.6399H82.9731L81.6731 23.4999H80.6731L79.9731 20.8899C79.9131 20.6566 79.8564 20.4266 79.8031 20.1999C79.7564 19.9732 79.7031 19.7366 79.6431 19.4899H79.6031C79.5498 19.7366 79.4964 19.9766 79.4431 20.2099C79.3898 20.4366 79.3298 20.6666 79.2631 20.8999L78.5831 23.4999H77.6231ZM84.0308 23.4999V18.6399H84.7108L84.7808 19.3399H84.8108C85.0442 19.1066 85.2875 18.9132 85.5408 18.7599C85.8008 18.5999 86.1008 18.5199 86.4408 18.5199C86.9542 18.5199 87.3275 18.6799 87.5608 18.9999C87.8008 19.3199 87.9208 19.7932 87.9208 20.4199V23.4999H87.1008V20.5299C87.1008 20.0699 87.0275 19.7399 86.8808 19.5399C86.7342 19.3332 86.5008 19.2299 86.1808 19.2299C85.9275 19.2299 85.7042 19.2932 85.5108 19.4199C85.3175 19.5466 85.0975 19.7332 84.8508 19.9799V23.4999H84.0308ZM90.3696 23.6199C90.0563 23.6199 89.8329 23.5266 89.6996 23.3399C89.5663 23.1532 89.4996 22.8799 89.4996 22.5199V16.3799H90.3196V22.5799C90.3196 22.7132 90.3429 22.8066 90.3896 22.8599C90.4363 22.9132 90.4896 22.9399 90.5496 22.9399C90.5763 22.9399 90.5996 22.9399 90.6196 22.9399C90.6463 22.9399 90.6829 22.9332 90.7296 22.9199L90.8396 23.5399C90.7863 23.5666 90.7229 23.5866 90.6496 23.5999C90.5763 23.6132 90.4829 23.6199 90.3696 23.6199ZM93.9384 23.6199C93.6384 23.6199 93.3517 23.5632 93.0784 23.4499C92.8117 23.3366 92.5751 23.1732 92.3684 22.9599C92.1617 22.7399 91.9951 22.4732 91.8684 22.1599C91.7484 21.8399 91.6884 21.4799 91.6884 21.0799C91.6884 20.6732 91.7484 20.3132 91.8684 19.9999C91.9951 19.6799 92.1617 19.4099 92.3684 19.1899C92.5751 18.9699 92.8117 18.8032 93.0784 18.6899C93.3517 18.5766 93.6384 18.5199 93.9384 18.5199C94.2384 18.5199 94.5217 18.5766 94.7884 18.6899C95.0617 18.8032 95.3017 18.9699 95.5084 19.1899C95.7151 19.4099 95.8784 19.6799 95.9984 19.9999C96.1251 20.3132 96.1884 20.6732 96.1884 21.0799C96.1884 21.4799 96.1251 21.8399 95.9984 22.1599C95.8784 22.4732 95.7151 22.7399 95.5084 22.9599C95.3017 23.1732 95.0617 23.3366 94.7884 23.4499C94.5217 23.5632 94.2384 23.6199 93.9384 23.6199ZM93.9384 22.9399C94.1451 22.9399 94.3351 22.8966 94.5084 22.8099C94.6817 22.7166 94.8284 22.5899 94.9484 22.4299C95.0751 22.2632 95.1717 22.0666 95.2384 21.8399C95.3051 21.6132 95.3384 21.3599 95.3384 21.0799C95.3384 20.7999 95.3051 20.5466 95.2384 20.3199C95.1717 20.0866 95.0751 19.8866 94.9484 19.7199C94.8284 19.5532 94.6817 19.4266 94.5084 19.3399C94.3351 19.2466 94.1451 19.1999 93.9384 19.1999C93.7317 19.1999 93.5417 19.2466 93.3684 19.3399C93.1951 19.4266 93.0451 19.5532 92.9184 19.7199C92.7984 19.8866 92.7051 20.0866 92.6384 20.3199C92.5717 20.5466 92.5384 20.7999 92.5384 21.0799C92.5384 21.3599 92.5717 21.6132 92.6384 21.8399C92.7051 22.0666 92.7984 22.2632 92.9184 22.4299C93.0451 22.5899 93.1951 22.7166 93.3684 22.8099C93.5417 22.8966 93.7317 22.9399 93.9384 22.9399ZM98.4516 23.6199C98.045 23.6199 97.705 23.4999 97.4316 23.2599C97.165 23.0199 97.0316 22.6799 97.0316 22.2399C97.0316 21.7066 97.2683 21.2999 97.7416 21.0199C98.215 20.7332 98.9716 20.5332 100.012 20.4199C100.012 20.2666 99.995 20.1166 99.9616 19.9699C99.935 19.8232 99.885 19.6932 99.8116 19.5799C99.7383 19.4666 99.635 19.3766 99.5016 19.3099C99.375 19.2366 99.2116 19.1999 99.0116 19.1999C98.7316 19.1999 98.4683 19.2532 98.2216 19.3599C97.975 19.4666 97.755 19.5866 97.5616 19.7199L97.2416 19.1499C97.4683 19.0032 97.745 18.8632 98.0716 18.7299C98.3983 18.5899 98.7583 18.5199 99.1516 18.5199C99.745 18.5199 100.175 18.7032 100.442 19.0699C100.708 19.4299 100.842 19.9132 100.842 20.5199V23.4999H100.162L100.092 22.9199H100.062C99.8283 23.1132 99.5783 23.2799 99.3116 23.4199C99.045 23.5532 98.7583 23.6199 98.4516 23.6199ZM98.6916 22.9599C98.925 22.9599 99.145 22.9066 99.3516 22.7999C99.5583 22.6866 99.7783 22.5232 100.012 22.3099V20.9599C99.605 21.0132 99.2616 21.0766 98.9816 21.1499C98.7083 21.2232 98.485 21.3099 98.3116 21.4099C98.145 21.5099 98.0216 21.6266 97.9416 21.7599C97.8683 21.8866 97.8316 22.0266 97.8316 22.1799C97.8316 22.4599 97.915 22.6599 98.0816 22.7799C98.2483 22.8999 98.4516 22.9599 98.6916 22.9599ZM104.031 23.6199C103.417 23.6199 102.927 23.3999 102.561 22.9599C102.201 22.5199 102.021 21.8932 102.021 21.0799C102.021 20.6866 102.077 20.3332 102.191 20.0199C102.311 19.6999 102.467 19.4299 102.661 19.2099C102.854 18.9899 103.077 18.8199 103.331 18.6999C103.584 18.5799 103.851 18.5199 104.131 18.5199C104.411 18.5199 104.654 18.5699 104.861 18.6699C105.067 18.7699 105.277 18.9066 105.491 19.0799L105.451 18.2499V16.3799H106.281V23.4999H105.601L105.531 22.9299H105.501C105.307 23.1166 105.084 23.2799 104.831 23.4199C104.584 23.5532 104.317 23.6199 104.031 23.6199ZM104.211 22.9299C104.437 22.9299 104.651 22.8766 104.851 22.7699C105.051 22.6566 105.251 22.4866 105.451 22.2599V19.7199C105.244 19.5332 105.044 19.4032 104.851 19.3299C104.664 19.2499 104.471 19.2099 104.271 19.2099C104.077 19.2099 103.894 19.2566 103.721 19.3499C103.554 19.4366 103.407 19.5632 103.281 19.7299C103.154 19.8899 103.054 20.0832 102.981 20.3099C102.907 20.5366 102.871 20.7899 102.871 21.0699C102.871 21.6566 102.987 22.1132 103.221 22.4399C103.454 22.7666 103.784 22.9299 104.211 22.9299ZM110.97 23.4999L109.22 18.6399H110.07L110.99 21.3999C111.063 21.6399 111.136 21.8799 111.21 22.1199C111.29 22.3599 111.366 22.5966 111.44 22.8299H111.48C111.553 22.5966 111.626 22.3599 111.7 22.1199C111.773 21.8799 111.846 21.6399 111.92 21.3999L112.84 18.6399H113.65L111.93 23.4999H110.97ZM114.588 23.4999V18.6399H115.408V23.4999H114.588ZM115.008 17.6399C114.848 17.6399 114.711 17.5899 114.598 17.4899C114.491 17.3899 114.438 17.2632 114.438 17.1099C114.438 16.9499 114.491 16.8232 114.598 16.7299C114.711 16.6299 114.848 16.5799 115.008 16.5799C115.168 16.5799 115.301 16.6299 115.408 16.7299C115.521 16.8232 115.578 16.9499 115.578 17.1099C115.578 17.2632 115.521 17.3899 115.408 17.4899C115.301 17.5899 115.168 17.6399 115.008 17.6399ZM118.169 23.6199C117.762 23.6199 117.422 23.4999 117.149 23.2599C116.882 23.0199 116.749 22.6799 116.749 22.2399C116.749 21.7066 116.985 21.2999 117.459 21.0199C117.932 20.7332 118.689 20.5332 119.729 20.4199C119.729 20.2666 119.712 20.1166 119.679 19.9699C119.652 19.8232 119.602 19.6932 119.529 19.5799C119.455 19.4666 119.352 19.3766 119.219 19.3099C119.092 19.2366 118.929 19.1999 118.729 19.1999C118.449 19.1999 118.185 19.2532 117.939 19.3599C117.692 19.4666 117.472 19.5866 117.279 19.7199L116.959 19.1499C117.185 19.0032 117.462 18.8632 117.789 18.7299C118.115 18.5899 118.475 18.5199 118.869 18.5199C119.462 18.5199 119.892 18.7032 120.159 19.0699C120.425 19.4299 120.559 19.9132 120.559 20.5199V23.4999H119.879L119.809 22.9199H119.779C119.545 23.1132 119.295 23.2799 119.029 23.4199C118.762 23.5532 118.475 23.6199 118.169 23.6199ZM118.409 22.9599C118.642 22.9599 118.862 22.9066 119.069 22.7999C119.275 22.6866 119.495 22.5232 119.729 22.3099V20.9599C119.322 21.0132 118.979 21.0766 118.699 21.1499C118.425 21.2232 118.202 21.3099 118.029 21.4099C117.862 21.5099 117.739 21.6266 117.659 21.7599C117.585 21.8866 117.549 22.0266 117.549 22.1799C117.549 22.4599 117.632 22.6599 117.799 22.7799C117.965 22.8999 118.169 22.9599 118.409 22.9599Z" fill="#3196FF"/>
<path d="M67.4899 33.2102L67.2819 33.9902H69.0889L68.8939 33.2102C68.7726 32.7855 68.6556 32.3349 68.5429 31.8582C68.4302 31.3815 68.3176 30.9222 68.2049 30.4802H68.1529C68.0489 30.9309 67.9406 31.3945 67.8279 31.8712C67.7239 32.3392 67.6112 32.7855 67.4899 33.2102ZM64.4219 37.5002L67.0739 29.0242H69.3749L72.0269 37.5002H69.9989L69.4789 35.4852H66.8919L66.3719 37.5002H64.4219ZM72.797 39.8922V31.0522H74.357L74.487 31.6892H74.539C74.7904 31.4639 75.072 31.2775 75.384 31.1302C75.7047 30.9742 76.034 30.8962 76.372 30.8962C76.762 30.8962 77.113 30.9742 77.425 31.1302C77.737 31.2862 78.0014 31.5072 78.218 31.7932C78.4347 32.0792 78.5994 32.4259 78.712 32.8332C78.8334 33.2319 78.894 33.6782 78.894 34.1722C78.894 34.7269 78.816 35.2209 78.66 35.6542C78.5127 36.0789 78.309 36.4429 78.049 36.7462C77.7977 37.0409 77.5074 37.2662 77.178 37.4222C76.8574 37.5782 76.5237 37.6562 76.177 37.6562C75.8997 37.6562 75.631 37.5999 75.371 37.4872C75.111 37.3659 74.8684 37.1969 74.643 36.9802L74.708 38.0072V39.8922H72.797ZM75.735 36.0962C76.0644 36.0962 76.346 35.9489 76.58 35.6542C76.814 35.3509 76.931 34.8655 76.931 34.1982C76.931 33.0369 76.5584 32.4562 75.813 32.4562C75.4404 32.4562 75.072 32.6512 74.708 33.0412V35.6802C74.8814 35.8362 75.0547 35.9445 75.228 36.0052C75.4014 36.0659 75.5704 36.0962 75.735 36.0962ZM80.2492 39.8922V31.0522H81.8092L81.9392 31.6892H81.9912C82.2425 31.4639 82.5242 31.2775 82.8362 31.1302C83.1569 30.9742 83.4862 30.8962 83.8242 30.8962C84.2142 30.8962 84.5652 30.9742 84.8772 31.1302C85.1892 31.2862 85.4535 31.5072 85.6702 31.7932C85.8869 32.0792 86.0515 32.4259 86.1642 32.8332C86.2855 33.2319 86.3462 33.6782 86.3462 34.1722C86.3462 34.7269 86.2682 35.2209 86.1122 35.6542C85.9649 36.0789 85.7612 36.4429 85.5012 36.7462C85.2499 37.0409 84.9595 37.2662 84.6302 37.4222C84.3095 37.5782 83.9759 37.6562 83.6292 37.6562C83.3519 37.6562 83.0832 37.5999 82.8232 37.4872C82.5632 37.3659 82.3205 37.1969 82.0952 36.9802L82.1602 38.0072V39.8922H80.2492ZM83.1872 36.0962C83.5165 36.0962 83.7982 35.9489 84.0322 35.6542C84.2662 35.3509 84.3832 34.8655 84.3832 34.1982C84.3832 33.0369 84.0105 32.4562 83.2652 32.4562C82.8925 32.4562 82.5242 32.6512 82.1602 33.0412V35.6802C82.3335 35.8362 82.5069 35.9445 82.6802 36.0052C82.8535 36.0659 83.0225 36.0962 83.1872 36.0962ZM93.0469 37.6562C92.4922 37.6562 91.9376 37.5565 91.3829 37.3572C90.8369 37.1492 90.3472 36.8415 89.9139 36.4342L91.0059 35.1212C91.3092 35.3812 91.6429 35.5935 92.0069 35.7582C92.3796 35.9229 92.7436 36.0052 93.0989 36.0052C93.4976 36.0052 93.7922 35.9315 93.9829 35.7842C94.1822 35.6369 94.2819 35.4375 94.2819 35.1862C94.2819 35.0562 94.2516 34.9435 94.1909 34.8482C94.1389 34.7529 94.0566 34.6705 93.9439 34.6012C93.8399 34.5232 93.7099 34.4539 93.5539 34.3932C93.4066 34.3239 93.2419 34.2502 93.0599 34.1722L91.9549 33.7042C91.7382 33.6175 91.5259 33.5049 91.3179 33.3662C91.1186 33.2275 90.9366 33.0672 90.7719 32.8852C90.6159 32.6945 90.4902 32.4779 90.3949 32.2352C90.2996 31.9839 90.2519 31.7022 90.2519 31.3902C90.2519 31.0435 90.3256 30.7185 90.4729 30.4152C90.6202 30.1032 90.8282 29.8345 91.0969 29.6092C91.3656 29.3752 91.6819 29.1932 92.0459 29.0632C92.4186 28.9332 92.8259 28.8682 93.2679 28.8682C93.7619 28.8682 94.2472 28.9635 94.7239 29.1542C95.2092 29.3449 95.6339 29.6222 95.9979 29.9862L95.0229 31.1952C94.7456 30.9785 94.4682 30.8139 94.1909 30.7012C93.9136 30.5799 93.6059 30.5192 93.2679 30.5192C92.9386 30.5192 92.6742 30.5885 92.4749 30.7272C92.2842 30.8572 92.1889 31.0435 92.1889 31.2862C92.1889 31.4162 92.2192 31.5289 92.2799 31.6242C92.3492 31.7109 92.4402 31.7932 92.5529 31.8712C92.6742 31.9405 92.8129 32.0099 92.9689 32.0792C93.1249 32.1399 93.2939 32.2092 93.4759 32.2872L94.5679 32.7292C95.0879 32.9372 95.4952 33.2232 95.7899 33.5872C96.0932 33.9512 96.2449 34.4322 96.2449 35.0302C96.2449 35.3855 96.1712 35.7235 96.0239 36.0442C95.8852 36.3562 95.6772 36.6335 95.3999 36.8762C95.1312 37.1102 94.7976 37.3009 94.3989 37.4482C94.0002 37.5869 93.5496 37.6562 93.0469 37.6562ZM99.6424 37.6562C99.2437 37.6562 98.9014 37.5955 98.6154 37.4742C98.338 37.3529 98.1084 37.1839 97.9264 36.9672C97.753 36.7505 97.623 36.4905 97.5364 36.1872C97.4584 35.8752 97.4194 35.5329 97.4194 35.1602V32.5472H96.5354V31.1302L97.5234 31.0522L97.7444 29.3362H99.3304V31.0522H100.877V32.5472H99.3304V35.1342C99.3304 35.4982 99.404 35.7625 99.5514 35.9272C99.7074 36.0832 99.911 36.1612 100.162 36.1612C100.266 36.1612 100.37 36.1482 100.474 36.1222C100.587 36.0962 100.687 36.0659 100.773 36.0312L101.072 37.4222C100.899 37.4742 100.695 37.5262 100.461 37.5782C100.227 37.6302 99.9544 37.6562 99.6424 37.6562ZM104.677 37.6562C104.269 37.6562 103.875 37.5825 103.494 37.4352C103.112 37.2792 102.774 37.0582 102.48 36.7722C102.194 36.4862 101.964 36.1352 101.791 35.7192C101.617 35.2945 101.531 34.8135 101.531 34.2762C101.531 33.7389 101.617 33.2622 101.791 32.8462C101.964 32.4215 102.194 32.0662 102.48 31.7802C102.774 31.4942 103.112 31.2775 103.494 31.1302C103.875 30.9742 104.269 30.8962 104.677 30.8962C105.084 30.8962 105.474 30.9742 105.847 31.1302C106.228 31.2775 106.562 31.4942 106.848 31.7802C107.142 32.0662 107.376 32.4215 107.55 32.8462C107.723 33.2622 107.81 33.7389 107.81 34.2762C107.81 34.8135 107.723 35.2945 107.55 35.7192C107.376 36.1352 107.142 36.4862 106.848 36.7722C106.562 37.0582 106.228 37.2792 105.847 37.4352C105.474 37.5825 105.084 37.6562 104.677 37.6562ZM104.677 36.1092C105.067 36.1092 105.361 35.9445 105.561 35.6152C105.76 35.2859 105.86 34.8395 105.86 34.2762C105.86 33.7129 105.76 33.2665 105.561 32.9372C105.361 32.6079 105.067 32.4432 104.677 32.4432C104.278 32.4432 103.979 32.6079 103.78 32.9372C103.589 33.2665 103.494 33.7129 103.494 34.2762C103.494 34.8395 103.589 35.2859 103.78 35.6152C103.979 35.9445 104.278 36.1092 104.677 36.1092ZM109.118 37.5002V31.0522H110.678L110.808 32.1832H110.86C111.094 31.7412 111.376 31.4162 111.705 31.2082C112.035 31.0002 112.364 30.8962 112.693 30.8962C112.875 30.8962 113.023 30.9092 113.135 30.9352C113.257 30.9525 113.365 30.9829 113.46 31.0262L113.148 32.6772C113.027 32.6425 112.914 32.6165 112.81 32.5992C112.706 32.5819 112.585 32.5732 112.446 32.5732C112.204 32.5732 111.948 32.6599 111.679 32.8332C111.419 33.0065 111.203 33.3142 111.029 33.7562V37.5002H109.118ZM117.057 37.6562C116.598 37.6562 116.169 37.5825 115.77 37.4352C115.372 37.2792 115.025 37.0582 114.73 36.7722C114.436 36.4775 114.206 36.1222 114.041 35.7062C113.877 35.2902 113.794 34.8135 113.794 34.2762C113.794 33.7562 113.881 33.2882 114.054 32.8722C114.228 32.4475 114.453 32.0922 114.73 31.8062C115.016 31.5115 115.341 31.2862 115.705 31.1302C116.069 30.9742 116.446 30.8962 116.836 30.8962C117.296 30.8962 117.694 30.9742 118.032 31.1302C118.379 31.2862 118.665 31.5029 118.89 31.7802C119.124 32.0575 119.298 32.3869 119.41 32.7682C119.523 33.1409 119.579 33.5482 119.579 33.9902C119.579 34.1635 119.571 34.3282 119.553 34.4842C119.536 34.6402 119.519 34.7572 119.501 34.8352H115.64C115.727 35.3032 115.918 35.6499 116.212 35.8752C116.516 36.0919 116.884 36.2002 117.317 36.2002C117.777 36.2002 118.24 36.0572 118.708 35.7712L119.345 36.9282C119.016 37.1535 118.648 37.3312 118.24 37.4612C117.842 37.5912 117.447 37.6562 117.057 37.6562ZM115.627 33.5742H117.954C117.954 33.2102 117.872 32.9155 117.707 32.6902C117.543 32.4649 117.265 32.3522 116.875 32.3522C116.572 32.3522 116.303 32.4519 116.069 32.6512C115.844 32.8505 115.697 33.1582 115.627 33.5742Z" fill="#3196FF"/>
<path d="M37.5097 28.3722C37.3389 25.358 39.4487 22.2812 42.5511 22.2812C43.2655 22.2812 43.5895 22.4505 44.3676 22.6971C44.7842 22.8291 45.4902 23.1959 45.8984 23.1959C46.3066 23.1959 46.7964 22.9257 47.4572 22.6789C48.3946 22.3287 48.949 22.2912 49.4906 22.2812C51.3072 22.2812 52.6408 23.0548 53.4911 24.2562C52.0876 25.1864 51.348 26.3142 51.3071 28.1436C51.3071 29.8066 52.3481 31.4281 54.0217 32.1557C53.6135 33.9019 51.4092 37.4982 49.5927 37.4982C48.9689 37.4618 48.5856 37.3628 47.8578 37.0825C47.3155 36.8404 46.5923 36.6666 46.1229 36.6666C45.633 36.6459 45.084 36.8077 44.3982 37.0825C43.8165 37.3156 43.4699 37.4478 42.6735 37.4982C41.1631 37.5936 37.8123 33.7148 37.5097 28.3722Z" fill="#3196FF"/>
<path d="M46.878 19.0383C46.0354 19.9625 45.7146 21.1795 45.7758 22.2813C47.1637 22.1774 48.123 21.5953 49.0007 20.5143C49.8783 19.4333 49.8848 18.6478 49.8783 17.5C48.8568 17.6693 47.674 18.1652 46.878 19.0383Z" fill="#3196FF"/>
</g>
<defs>
<linearGradient id="paint0_linear_27_771" x1="142.46" y1="7.79" x2="123.972" y2="74.0897" gradientUnits="userSpaceOnUse">
<stop stop-color="#101010"/>
<stop offset="1" stop-color="#1D1D1D"/>
</linearGradient>
<clipPath id="clip0_27_771">
<rect width="168" height="54" fill="white" transform="translate(0.5 0.5)"/>
</clipPath>
</defs>
</svg>
