<svg width="49" height="49" viewBox="0 0 49 49" fill="none" xmlns="http://www.w3.org/2000/svg">
<path d="M8.5187 25.6137C8.188 20.0373 12.2743 14.3455 18.2831 14.3455C19.6668 14.3455 20.2943 14.6585 21.8014 15.1147C22.6083 15.3589 23.9757 16.0377 24.7663 16.0377C25.5569 16.0377 26.5057 15.5377 27.7855 15.0811C29.6011 14.4333 30.6749 14.364 31.7239 14.3455C35.2423 14.3455 37.8253 15.7764 39.4722 17.999C36.7539 19.7199 35.3213 21.8064 35.2423 25.1907C35.2423 28.2674 37.2584 31.2671 40.5 32.6131C39.7094 35.8436 35.4399 42.4969 31.9216 42.4969C30.7135 42.4297 29.971 42.2462 28.5614 41.7277C27.511 41.2798 26.1104 40.9586 25.2012 40.9586C24.2524 40.9201 23.189 41.2193 21.8607 41.7277C20.7341 42.159 20.0628 42.4038 18.5203 42.4969C15.5949 42.6735 9.10485 35.4975 8.5187 25.6137Z" fill="#3196FF"/>
<path d="M26.664 8.34591C25.0322 10.0555 24.4107 12.3071 24.5293 14.3454C27.2175 14.1531 29.0755 13.0763 30.7754 11.0764C32.4752 9.07661 32.4877 7.62343 32.4752 5.5C30.4967 5.81321 28.2058 6.73066 26.664 8.34591Z" fill="#3196FF"/>
</svg>
