<svg width="1920" height="1080" viewBox="0 0 1920 1080" fill="none" xmlns="http://www.w3.org/2000/svg">
<g clip-path="url(#clip0_28_1326)">
<mask id="mask0_28_1326" style="mask-type:luminance" maskUnits="userSpaceOnUse" x="0" y="0" width="1920" height="1080">
<path d="M1920 0H0V1080H1920V0Z" fill="white"/>
</mask>
<g mask="url(#mask0_28_1326)">
<path d="M1920 0H0V1080H1920V0Z" fill="#EDEAEF"/>
<g filter="url(#filter0_f_28_1326)">
<path d="M2212.69 240.051L1844.54 27.5C1818.24 12.3122 1775.58 12.3122 1749.28 27.5L663.63 654.3C637.324 669.488 637.324 694.112 663.63 709.3L1031.78 921.851C1058.08 937.039 1100.74 937.039 1127.04 921.851L2212.69 295.051C2239 279.863 2239 255.239 2212.69 240.051Z" fill="url(#paint0_linear_28_1326)" fill-opacity="0.3"/>
</g>
<g filter="url(#filter1_f_28_1326)">
<path d="M1106.69 190.051L738.543 -22.5C712.236 -37.6878 669.586 -37.6878 643.28 -22.5L-442.369 604.3C-468.675 619.488 -468.675 644.112 -442.369 659.3L-74.2202 871.851C-47.9141 887.039 -5.26348 887.039 21.0426 871.851L1106.69 245.051C1133 229.863 1133 205.239 1106.69 190.051Z" fill="url(#paint1_linear_28_1326)" fill-opacity="0.3"/>
</g>
<path d="M1987.31 64.051L1619.16 -148.5C1592.86 -163.688 1550.2 -163.688 1523.9 -148.5L888.631 218.272C862.324 233.46 862.324 258.085 888.631 273.272L1256.78 485.823C1283.09 501.011 1325.74 501.011 1352.04 485.823L1987.31 119.051C2013.62 103.863 2013.62 79.2388 1987.31 64.051Z" fill="url(#paint2_linear_28_1326)"/>
<path d="M1204.31 549.051L836.162 336.5C809.856 321.312 767.206 321.312 740.9 336.5L105.631 703.272C79.3253 718.46 79.3253 743.085 105.631 758.272L473.78 970.823C500.086 986.011 542.737 986.011 569.043 970.823L1204.31 604.051C1230.62 588.863 1230.62 564.239 1204.31 549.051Z" fill="url(#paint3_linear_28_1326)"/>
<path d="M2260.31 576.051L1892.16 363.5C1865.86 348.312 1823.2 348.312 1796.9 363.5L1161.63 730.272C1135.32 745.46 1135.32 770.085 1161.63 785.272L1529.78 997.823C1556.09 1013.01 1598.74 1013.01 1625.04 997.823L2260.31 631.051C2286.62 615.863 2286.62 591.239 2260.31 576.051Z" fill="url(#paint4_linear_28_1326)"/>
<path d="M1058.31 3.05099L690.162 -209.5C663.856 -224.688 621.206 -224.688 594.9 -209.5L-40.3686 157.272C-66.6747 172.46 -66.6747 197.085 -40.3686 212.272L327.78 424.823C354.086 440.011 396.737 440.011 423.043 424.823L1058.31 58.051C1084.62 42.8632 1084.62 18.2388 1058.31 3.05099Z" fill="url(#paint5_linear_28_1326)"/>
<path d="M1985 699.703V258.116C1985 236.616 1973.36 230 1956.72 230H1863.57C1843.61 230 1835.29 236.616 1835.29 258.116V876.672C1835.29 891.557 1805.56 945.63 1722.18 939.521C1564.15 927.944 1471 818.703 1471 731.129V258.116C1471 239.923 1479.32 230 1499.28 230H1590.77C1610.73 230 1619.05 239.923 1619.05 258.116V694.744C1619.05 744.226 1668.26 797.285 1722.18 797.285H1888.53C1941.76 797.285 1985 736.089 1985 699.703Z" stroke="url(#paint6_linear_28_1326)" stroke-width="2"/>
<path d="M841 326.297V767.884C841 789.384 852.598 796 869.168 796H961.958C981.841 796 990.126 789.384 990.126 767.884V149.328C990.126 134.443 1019.74 80.3704 1102.8 86.4789C1260.21 98.0561 1353 207.297 1353 294.871V767.884C1353 786.077 1344.71 796 1324.83 796H1233.7C1213.82 796 1205.53 786.077 1205.53 767.884V331.256C1205.53 281.774 1156.51 228.715 1102.8 228.715H937.093C884.07 228.715 841 289.911 841 326.297Z" stroke="url(#paint7_linear_28_1326)" stroke-width="2"/>
</g>
</g>
<defs>
<filter id="filter0_f_28_1326" x="393.9" y="-233.891" width="2088.52" height="1417.13" filterUnits="userSpaceOnUse" color-interpolation-filters="sRGB">
<feFlood flood-opacity="0" result="BackgroundImageFix"/>
<feBlend mode="normal" in="SourceGraphic" in2="BackgroundImageFix" result="shape"/>
<feGaussianBlur stdDeviation="125" result="effect1_foregroundBlur_28_1326"/>
</filter>
<filter id="filter1_f_28_1326" x="-712.099" y="-283.891" width="2088.52" height="1417.13" filterUnits="userSpaceOnUse" color-interpolation-filters="sRGB">
<feFlood flood-opacity="0" result="BackgroundImageFix"/>
<feBlend mode="normal" in="SourceGraphic" in2="BackgroundImageFix" result="shape"/>
<feGaussianBlur stdDeviation="125" result="effect1_foregroundBlur_28_1326"/>
</filter>
<linearGradient id="paint0_linear_28_1326" x1="2260.32" y1="267.551" x2="1413.04" y2="-372.802" gradientUnits="userSpaceOnUse">
<stop stop-color="#8429A0"/>
<stop offset="1" stop-color="#8429A0" stop-opacity="0"/>
</linearGradient>
<linearGradient id="paint1_linear_28_1326" x1="1154.32" y1="217.551" x2="307.045" y2="-422.802" gradientUnits="userSpaceOnUse">
<stop stop-color="#8429A0"/>
<stop offset="1" stop-color="#8429A0" stop-opacity="0"/>
</linearGradient>
<linearGradient id="paint2_linear_28_1326" x1="1803.24" y1="-42.2245" x2="1437.97" y2="590.434" gradientUnits="userSpaceOnUse">
<stop stop-color="#F6F3F7"/>
<stop offset="1" stop-color="#F3F0F5" stop-opacity="0"/>
</linearGradient>
<linearGradient id="paint3_linear_28_1326" x1="1020.24" y1="442.775" x2="654.971" y2="1075.43" gradientUnits="userSpaceOnUse">
<stop stop-color="#F6F3F7"/>
<stop offset="1" stop-color="#F3F0F5" stop-opacity="0"/>
</linearGradient>
<linearGradient id="paint4_linear_28_1326" x1="2076.24" y1="469.775" x2="1710.97" y2="1102.43" gradientUnits="userSpaceOnUse">
<stop stop-color="#F6F3F7"/>
<stop offset="1" stop-color="#F3F0F5" stop-opacity="0"/>
</linearGradient>
<linearGradient id="paint5_linear_28_1326" x1="874.237" y1="-103.225" x2="508.971" y2="529.434" gradientUnits="userSpaceOnUse">
<stop stop-color="#F6F3F7"/>
<stop offset="1" stop-color="#F3F0F5" stop-opacity="0"/>
</linearGradient>
<linearGradient id="paint6_linear_28_1326" x1="1728" y1="230" x2="1728" y2="940" gradientUnits="userSpaceOnUse">
<stop stop-color="#82269E" stop-opacity="0.7"/>
<stop offset="1" stop-color="#82269E" stop-opacity="0"/>
</linearGradient>
<linearGradient id="paint7_linear_28_1326" x1="1097" y1="796" x2="1097" y2="86" gradientUnits="userSpaceOnUse">
<stop stop-color="#82269E" stop-opacity="0.7"/>
<stop offset="1" stop-color="#82269E" stop-opacity="0"/>
</linearGradient>
<clipPath id="clip0_28_1326">
<rect width="1920" height="1080" fill="white"/>
</clipPath>
</defs>
</svg>
