<svg width="1921" height="1081" viewBox="0 0 1921 1081" fill="none" xmlns="http://www.w3.org/2000/svg">
<g clip-path="url(#clip0_27_1217)">
<mask id="mask0_27_1217" style="mask-type:luminance" maskUnits="userSpaceOnUse" x="0" y="0" width="1921" height="1081">
<path d="M1920.5 0.5H0.5V1080.5H1920.5V0.5Z" fill="white"/>
</mask>
<g mask="url(#mask0_27_1217)">
<path d="M1238 381.5C1299.58 381.5 1349.5 331.58 1349.5 270C1349.5 208.42 1299.58 158.5 1238 158.5C1176.42 158.5 1126.5 208.42 1126.5 270C1126.5 331.58 1176.42 381.5 1238 381.5Z" fill="url(#paint0_linear_27_1217)"/>
<path d="M755 297.5C785.1 297.5 809.5 273.1 809.5 243C809.5 212.9 785.1 188.5 755 188.5C724.9 188.5 700.5 212.9 700.5 243C700.5 273.1 724.9 297.5 755 297.5Z" fill="#3196FF"/>
<path d="M873.5 789.5C955.238 789.5 1021.5 723.238 1021.5 641.5C1021.5 559.762 955.238 493.5 873.5 493.5C791.762 493.5 725.5 559.762 725.5 641.5C725.5 723.238 791.762 789.5 873.5 789.5Z" fill="url(#paint1_linear_27_1217)"/>
<path d="M1672.5 778.5C1695.14 778.5 1713.5 760.144 1713.5 737.5C1713.5 714.856 1695.14 696.5 1672.5 696.5C1649.86 696.5 1631.5 714.856 1631.5 737.5C1631.5 760.144 1649.86 778.5 1672.5 778.5Z" fill="url(#paint2_linear_27_1217)"/>
<path d="M1873.12 313.551L1504.97 101C1478.67 85.8122 1436.01 85.8122 1409.71 101L903.131 393.473C876.825 408.661 876.825 433.285 903.131 448.473L1271.28 661.024C1297.59 676.212 1340.24 676.212 1366.54 661.024L1873.12 368.551C1899.43 353.363 1899.43 328.739 1873.12 313.551Z" fill="url(#paint3_linear_27_1217)"/>
<path d="M1190.89 685.551L822.744 473C796.438 457.812 753.787 457.812 727.481 473L275.133 734.164C248.827 749.351 248.827 773.976 275.133 789.164L643.282 1001.71C669.588 1016.9 712.238 1016.9 738.544 1001.71L1190.89 740.551C1217.2 725.363 1217.2 700.739 1190.89 685.551Z" fill="url(#paint4_linear_27_1217)"/>
<path d="M2209.26 780.551L1841.11 568C1814.81 552.812 1772.15 552.812 1745.85 568L1286.13 833.417C1259.83 848.604 1259.83 873.229 1286.13 888.417L1654.28 1100.97C1680.59 1116.16 1723.24 1116.16 1749.55 1100.97L2209.26 835.551C2235.57 820.363 2235.57 795.739 2209.26 780.551Z" fill="url(#paint5_linear_27_1217)"/>
<path d="M825.665 273.551L457.516 61C431.21 45.8122 388.559 45.8122 362.253 61L-226.868 401.129C-253.174 416.317 -253.174 440.941 -226.868 456.129L141.281 668.68C167.588 683.868 210.238 683.868 236.544 668.68L825.665 328.551C851.971 313.363 851.971 288.739 825.665 273.551Z" fill="url(#paint6_linear_27_1217)"/>
</g>
</g>
<defs>
<linearGradient id="paint0_linear_27_1217" x1="1349.5" y1="270" x2="1126.5" y2="270" gradientUnits="userSpaceOnUse">
<stop stop-color="#0066FF"/>
<stop offset="1" stop-color="#82269E" stop-opacity="0"/>
</linearGradient>
<linearGradient id="paint1_linear_27_1217" x1="1021.5" y1="641.5" x2="725.5" y2="641.5" gradientUnits="userSpaceOnUse">
<stop stop-color="#0066FF"/>
<stop offset="1" stop-color="#82269E" stop-opacity="0"/>
</linearGradient>
<linearGradient id="paint2_linear_27_1217" x1="1713.5" y1="696.5" x2="1631.5" y2="778.5" gradientUnits="userSpaceOnUse">
<stop stop-color="#8429A0"/>
<stop offset="1" stop-color="#8429A0" stop-opacity="0"/>
</linearGradient>
<linearGradient id="paint3_linear_27_1217" x1="1767.67" y1="346.489" x2="1026.63" y2="270.021" gradientUnits="userSpaceOnUse">
<stop stop-color="#0D1117"/>
<stop offset="1" stop-color="#172130"/>
</linearGradient>
<linearGradient id="paint4_linear_27_1217" x1="1092.77" y1="714.263" x2="377.485" y2="698.859" gradientUnits="userSpaceOnUse">
<stop stop-color="#0D1117"/>
<stop offset="1" stop-color="#172130"/>
</linearGradient>
<linearGradient id="paint5_linear_27_1217" x1="2110.14" y1="809.837" x2="1390.59" y2="786.017" gradientUnits="userSpaceOnUse">
<stop stop-color="#0D1117"/>
<stop offset="1" stop-color="#172130"/>
</linearGradient>
<linearGradient id="paint6_linear_27_1217" x1="709.075" y1="312.923" x2="-50.2669" y2="150.783" gradientUnits="userSpaceOnUse">
<stop stop-color="#0D1117"/>
<stop offset="1" stop-color="#172130"/>
</linearGradient>
<clipPath id="clip0_27_1217">
<rect width="1920" height="1080" fill="white" transform="translate(0.5 0.5)"/>
</clipPath>
</defs>
</svg>
