<svg width="467" height="540" viewBox="0 0 467 540" fill="none" xmlns="http://www.w3.org/2000/svg">
<g clip-path="url(#clip0_33_469)">
<mask id="mask0_33_469" style="mask-type:luminance" maskUnits="userSpaceOnUse" x="0" y="0" width="467" height="540">
<path d="M466.5 0H0.5V540H466.5V0Z" fill="white"/>
</mask>
<g mask="url(#mask0_33_469)">
<g filter="url(#filter0_dddd_33_469)">
<path d="M342.581 57H126.419C81.7285 57 45.5 93.2285 45.5 137.919V354.081C45.5 398.771 81.7285 435 126.419 435H342.581C387.271 435 423.5 398.771 423.5 354.081V137.919C423.5 93.2285 387.271 57 342.581 57Z" fill="#3196FF"/>
</g>
</g>
<mask id="path-3-inside-1_33_469" fill="white">
<path fill-rule="evenodd" clip-rule="evenodd" d="M233 376C305.349 376 364 317.349 364 245C364 172.651 305.349 114 233 114C160.651 114 102 172.651 102 245C102 317.349 160.651 376 233 376ZM329.407 231.406C317.192 245.69 299.986 254.586 280.924 254.586C243.867 254.586 213.826 220.969 213.826 179.5C213.826 169.068 215.728 159.132 219.164 150.103C172.728 157.156 137.145 197.25 137.145 245.655C137.145 259.778 140.175 273.194 145.619 285.288C151.141 280.15 158.903 276.952 167.499 276.952C184.263 276.952 197.853 289.112 197.853 304.111C197.853 314.183 191.725 322.974 182.623 327.663C197.464 336.943 215.004 342.307 233.798 342.307C287.177 342.307 330.45 299.034 330.45 245.655C330.45 240.814 330.094 236.056 329.407 231.406Z"/>
</mask>
<path fill-rule="evenodd" clip-rule="evenodd" d="M233 376C305.349 376 364 317.349 364 245C364 172.651 305.349 114 233 114C160.651 114 102 172.651 102 245C102 317.349 160.651 376 233 376ZM329.407 231.406C317.192 245.69 299.986 254.586 280.924 254.586C243.867 254.586 213.826 220.969 213.826 179.5C213.826 169.068 215.728 159.132 219.164 150.103C172.728 157.156 137.145 197.25 137.145 245.655C137.145 259.778 140.175 273.194 145.619 285.288C151.141 280.15 158.903 276.952 167.499 276.952C184.263 276.952 197.853 289.112 197.853 304.111C197.853 314.183 191.725 322.974 182.623 327.663C197.464 336.943 215.004 342.307 233.798 342.307C287.177 342.307 330.45 299.034 330.45 245.655C330.45 240.814 330.094 236.056 329.407 231.406Z" fill="white"/>
<path d="M329.407 231.406L332.052 231.015L331.193 225.204L327.375 229.669L329.407 231.406ZM219.164 150.103L221.663 151.054L223.292 146.772L218.763 147.46L219.164 150.103ZM145.619 285.288L143.181 286.385L144.711 289.784L147.44 287.245L145.619 285.288ZM182.623 327.663L181.399 325.287L177.222 327.439L181.206 329.93L182.623 327.663ZM361.326 245C361.326 315.873 303.873 373.326 233 373.326V378.674C306.826 378.674 366.674 318.826 366.674 245H361.326ZM233 116.674C303.873 116.674 361.326 174.127 361.326 245H366.674C366.674 171.174 306.826 111.326 233 111.326V116.674ZM104.674 245C104.674 174.127 162.127 116.674 233 116.674V111.326C159.174 111.326 99.3265 171.174 99.3265 245H104.674ZM233 373.326C162.127 373.326 104.674 315.873 104.674 245H99.3265C99.3265 318.826 159.174 378.674 233 378.674V373.326ZM280.924 257.259C300.854 257.259 318.775 247.953 331.439 233.144L327.375 229.669C315.609 243.428 299.118 251.912 280.924 251.912V257.259ZM211.153 179.5C211.153 222.155 242.116 257.259 280.924 257.259V251.912C245.618 251.912 216.5 219.783 216.5 179.5H211.153ZM216.665 149.152C213.114 158.484 211.153 168.742 211.153 179.5H216.5C216.5 169.393 218.342 159.779 221.663 151.054L216.665 149.152ZM139.819 245.655C139.819 198.591 174.417 159.603 219.565 152.746L218.763 147.46C171.04 154.708 134.472 195.908 134.472 245.655H139.819ZM148.057 284.19C142.765 272.434 139.819 259.392 139.819 245.655H134.472C134.472 260.164 137.584 273.953 143.181 286.385L148.057 284.19ZM167.499 274.279C158.241 274.279 149.825 277.723 143.798 283.33L147.44 287.245C152.457 282.577 159.565 279.626 167.499 279.626V274.279ZM200.526 304.111C200.526 287.363 185.452 274.279 167.499 274.279V279.626C183.074 279.626 195.179 290.86 195.179 304.111H200.526ZM183.848 330.04C193.702 324.963 200.526 315.33 200.526 304.111H195.179C195.179 313.036 189.748 320.985 181.399 325.287L183.848 330.04ZM233.798 339.634C215.52 339.634 198.469 334.419 184.041 325.396L181.206 329.93C196.459 339.468 214.489 344.981 233.798 344.981V339.634ZM327.777 245.655C327.777 297.558 285.701 339.634 233.798 339.634V344.981C288.654 344.981 333.124 300.511 333.124 245.655H327.777ZM326.762 231.797C327.43 236.318 327.777 240.945 327.777 245.655H333.124C333.124 240.683 332.758 235.794 332.052 231.015L326.762 231.797Z" fill="white" mask="url(#path-3-inside-1_33_469)"/>
</g>
<defs>
<filter id="filter0_dddd_33_469" x="-34.5" y="28" width="538" height="538" filterUnits="userSpaceOnUse" color-interpolation-filters="sRGB">
<feFlood flood-opacity="0" result="BackgroundImageFix"/>
<feColorMatrix in="SourceAlpha" type="matrix" values="0 0 0 0 0 0 0 0 0 0 0 0 0 0 0 0 0 0 127 0" result="hardAlpha"/>
<feOffset dy="2.30969"/>
<feGaussianBlur stdDeviation="1.81152"/>
<feColorMatrix type="matrix" values="0 0 0 0 0.662745 0 0 0 0 0.313726 0 0 0 0 0.768627 0 0 0 0.0278729 0"/>
<feBlend mode="normal" in2="BackgroundImageFix" result="effect1_dropShadow_33_469"/>
<feColorMatrix in="SourceAlpha" type="matrix" values="0 0 0 0 0 0 0 0 0 0 0 0 0 0 0 0 0 0 127 0" result="hardAlpha"/>
<feOffset dy="6.38599"/>
<feGaussianBlur stdDeviation="5.00862"/>
<feColorMatrix type="matrix" values="0 0 0 0 0.662745 0 0 0 0 0.313726 0 0 0 0 0.768627 0 0 0 0.04 0"/>
<feBlend mode="normal" in2="effect1_dropShadow_33_469" result="effect2_dropShadow_33_469"/>
<feColorMatrix in="SourceAlpha" type="matrix" values="0 0 0 0 0 0 0 0 0 0 0 0 0 0 0 0 0 0 127 0" result="hardAlpha"/>
<feOffset dy="15.375"/>
<feGaussianBlur stdDeviation="12.0588"/>
<feColorMatrix type="matrix" values="0 0 0 0 0.662745 0 0 0 0 0.313726 0 0 0 0 0.768627 0 0 0 0.0521271 0"/>
<feBlend mode="normal" in2="effect2_dropShadow_33_469" result="effect3_dropShadow_33_469"/>
<feColorMatrix in="SourceAlpha" type="matrix" values="0 0 0 0 0 0 0 0 0 0 0 0 0 0 0 0 0 0 127 0" result="hardAlpha"/>
<feOffset dy="51"/>
<feGaussianBlur stdDeviation="40"/>
<feColorMatrix type="matrix" values="0 0 0 0 0.662745 0 0 0 0 0.313726 0 0 0 0 0.768627 0 0 0 0.08 0"/>
<feBlend mode="normal" in2="effect3_dropShadow_33_469" result="effect4_dropShadow_33_469"/>
<feBlend mode="normal" in="SourceGraphic" in2="effect4_dropShadow_33_469" result="shape"/>
</filter>
<clipPath id="clip0_33_469">
<rect width="466" height="540" fill="white" transform="translate(0.5)"/>
</clipPath>
</defs>
</svg>
