<svg width="72" height="72" viewBox="0 0 72 72" fill="none" xmlns="http://www.w3.org/2000/svg">
<g clip-path="url(#clip0_26_81)">
<path d="M54.9231 0H17.0769C7.64559 0 0 7.64559 0 17.0769V54.9231C0 64.3544 7.64559 72 17.0769 72H54.9231C64.3544 72 72 64.3544 72 54.9231V17.0769C72 7.64559 64.3544 0 54.9231 0Z" fill="url(#paint0_linear_26_81)"/>
<path d="M43.6 21H28.1C26.3879 21 25 22.3879 25 24.1V48.9C25 50.6121 26.3879 52 28.1 52H43.6C45.3121 52 46.7 50.6121 46.7 48.9V24.1C46.7 22.3879 45.3121 21 43.6 21Z" stroke="#3196FF" stroke-width="3" stroke-linecap="round" stroke-linejoin="round"/>
<path d="M35.8506 45.8H35.8668" stroke="#3196FF" stroke-width="3" stroke-linecap="round" stroke-linejoin="round"/>
</g>
<defs>
<linearGradient id="paint0_linear_26_81" x1="60.84" y1="9.72" x2="13.68" y2="64.08" gradientUnits="userSpaceOnUse">
<stop stop-color="#101010"/>
<stop offset="1" stop-color="#1D1D1D"/>
</linearGradient>
<clipPath id="clip0_26_81">
<rect width="72" height="72" fill="white"/>
</clipPath>
</defs>
</svg>
