<svg width="73" height="73" viewBox="0 0 73 73" fill="none" xmlns="http://www.w3.org/2000/svg">
<g clip-path="url(#clip0_26_689)">
<path d="M55.4231 0.5H17.5769C8.14559 0.5 0.5 8.14559 0.5 17.5769V55.4231C0.5 64.8544 8.14559 72.5 17.5769 72.5H55.4231C64.8544 72.5 72.5 64.8544 72.5 55.4231V17.5769C72.5 8.14559 64.8544 0.5 55.4231 0.5Z" fill="url(#paint0_linear_26_689)"/>
<path d="M32.9668 25.9978C35.4951 29.0332 36.8796 32.8587 36.8796 36.8091C36.8796 40.7596 35.4951 44.5851 32.9668 47.6205" stroke="#3196FF" stroke-width="3" stroke-linecap="round" stroke-linejoin="round"/>
<path d="M38.4189 20.5C42.3749 24.988 44.5576 30.7651 44.5576 36.7477C44.5576 42.7304 42.3749 48.5075 38.4189 52.9954" stroke="#3196FF" stroke-width="3" stroke-linecap="round" stroke-linejoin="round"/>
<path d="M27.5 31.4189C28.6076 32.978 29.2027 34.8431 29.2027 36.7555C29.2027 38.668 28.6076 40.533 27.5 42.0921" stroke="#3196FF" stroke-width="3" stroke-linecap="round" stroke-linejoin="round"/>
</g>
<defs>
<linearGradient id="paint0_linear_26_689" x1="61.34" y1="10.22" x2="14.18" y2="64.58" gradientUnits="userSpaceOnUse">
<stop stop-color="#101010"/>
<stop offset="1" stop-color="#1D1D1D"/>
</linearGradient>
<clipPath id="clip0_26_689">
<rect width="72" height="72" fill="white" transform="translate(0.5 0.5)"/>
</clipPath>
</defs>
</svg>
