<svg width="72" height="72" viewBox="0 0 72 72" fill="none" xmlns="http://www.w3.org/2000/svg">
<g clip-path="url(#clip0_26_62)">
<path d="M54.9231 0H17.0769C7.64559 0 0 7.64559 0 17.0769V54.9231C0 64.3544 7.64559 72 17.0769 72H54.9231C64.3544 72 72 64.3544 72 54.9231V17.0769C72 7.64559 64.3544 0 54.9231 0Z" fill="url(#paint0_linear_26_62)"/>
<path d="M36 52C44.8366 52 52 44.8366 52 36C52 27.1634 44.8366 20 36 20C27.1634 20 20 27.1634 20 36C20 44.8366 27.1634 52 36 52Z" stroke="#3196FF" stroke-width="3" stroke-linecap="round" stroke-linejoin="round"/>
<path d="M36 26.3999V35.9999L42.4 39.1999" stroke="#3196FF" stroke-width="3" stroke-linecap="round" stroke-linejoin="round"/>
</g>
<defs>
<linearGradient id="paint0_linear_26_62" x1="60.84" y1="9.72" x2="13.68" y2="64.08" gradientUnits="userSpaceOnUse">
<stop stop-color="#101010"/>
<stop offset="1" stop-color="#1D1D1D"/>
</linearGradient>
<clipPath id="clip0_26_62">
<rect width="72" height="72" fill="white"/>
</clipPath>
</defs>
</svg>
