<svg width="73" height="73" viewBox="0 0 73 73" fill="none" xmlns="http://www.w3.org/2000/svg">
<g clip-path="url(#clip0_26_674)">
<path d="M55.4231 0.5H17.5769C8.14559 0.5 0.5 8.14559 0.5 17.5769V55.4231C0.5 64.8544 8.14559 72.5 17.5769 72.5H55.4231C64.8544 72.5 72.5 64.8544 72.5 55.4231V17.5769C72.5 8.14559 64.8544 0.5 55.4231 0.5Z" fill="url(#paint0_linear_26_674)"/>
<path d="M36.5 19.5V52.5" stroke="#3196FF" stroke-width="3" stroke-linecap="round" stroke-linejoin="round"/>
<path d="M44 25.5H32.75C31.3576 25.5 30.0223 26.0531 29.0377 27.0377C28.0531 28.0223 27.5 29.3576 27.5 30.75C27.5 32.1424 28.0531 33.4777 29.0377 34.4623C30.0223 35.4469 31.3576 36 32.75 36H40.25C41.6424 36 42.9777 36.5531 43.9623 37.5377C44.9469 38.5223 45.5 39.8576 45.5 41.25C45.5 42.6424 44.9469 43.9777 43.9623 44.9623C42.9777 45.9469 41.6424 46.5 40.25 46.5H27.5" stroke="#3196FF" stroke-width="3" stroke-linecap="round" stroke-linejoin="round"/>
</g>
<defs>
<linearGradient id="paint0_linear_26_674" x1="61.34" y1="10.22" x2="14.18" y2="64.58" gradientUnits="userSpaceOnUse">
<stop stop-color="#101010"/>
<stop offset="1" stop-color="#1D1D1D"/>
</linearGradient>
<clipPath id="clip0_26_674">
<rect width="72" height="72" fill="white" transform="translate(0.5 0.5)"/>
</clipPath>
</defs>
</svg>
