<svg width="73" height="73" viewBox="0 0 73 73" fill="none" xmlns="http://www.w3.org/2000/svg">
<g clip-path="url(#clip0_26_683)">
<path d="M55.4231 0.5H17.5769C8.14559 0.5 0.5 8.14559 0.5 17.5769V55.4231C0.5 64.8544 8.14559 72.5 17.5769 72.5H55.4231C64.8544 72.5 72.5 64.8544 72.5 55.4231V17.5769C72.5 8.14559 64.8544 0.5 55.4231 0.5Z" fill="url(#paint0_linear_26_683)"/>
<path d="M36.4994 41.8637C38.9093 41.8637 40.863 39.9101 40.863 37.5001C40.863 35.0901 38.9093 33.1365 36.4994 33.1365C34.0894 33.1365 32.1357 35.0901 32.1357 37.5001C32.1357 39.9101 34.0894 41.8637 36.4994 41.8637Z" stroke="#3196FF" stroke-width="3" stroke-linecap="round" stroke-linejoin="round"/>
<path d="M47.2636 41.8636C47.07 42.3024 47.0123 42.789 47.0978 43.2609C47.1834 43.7327 47.4083 44.1681 47.7436 44.5109L47.8309 44.5982C48.1014 44.8684 48.316 45.1892 48.4624 45.5424C48.6088 45.8955 48.6841 46.2741 48.6841 46.6564C48.6841 47.0387 48.6088 47.4172 48.4624 47.7704C48.316 48.1235 48.1014 48.4444 47.8309 48.7145C47.5607 48.985 47.2399 49.1996 46.8867 49.346C46.5336 49.4924 46.155 49.5677 45.7727 49.5677C45.3904 49.5677 45.0119 49.4924 44.6587 49.346C44.3056 49.1996 43.9847 48.985 43.7145 48.7145L43.6273 48.6273C43.2845 48.2919 42.8491 48.067 42.3772 47.9814C41.9054 47.8959 41.4187 47.9537 40.98 48.1473C40.5498 48.3317 40.1829 48.6378 39.9244 49.0281C39.666 49.4183 39.5273 49.8756 39.5255 50.3436V50.5909C39.5255 51.3624 39.219 52.1024 38.6734 52.6479C38.1278 53.1935 37.3879 53.5 36.6164 53.5C35.8448 53.5 35.1049 53.1935 34.5593 52.6479C34.0138 52.1024 33.7073 51.3624 33.7073 50.5909V50.46C33.696 49.9786 33.5402 49.5116 33.26 49.1199C32.9799 48.7282 32.5883 48.4299 32.1364 48.2636C31.6976 48.07 31.211 48.0123 30.7391 48.0978C30.2673 48.1834 29.8319 48.4083 29.4891 48.7436L29.4018 48.8309C29.1316 49.1014 28.8108 49.316 28.4576 49.4624C28.1045 49.6088 27.7259 49.6841 27.3436 49.6841C26.9613 49.6841 26.5828 49.6088 26.2296 49.4624C25.8765 49.316 25.5556 49.1014 25.2855 48.8309C25.015 48.5607 24.8004 48.2399 24.654 47.8867C24.5076 47.5336 24.4323 47.155 24.4323 46.7727C24.4323 46.3904 24.5076 46.0119 24.654 45.6587C24.8004 45.3056 25.015 44.9847 25.2855 44.7145L25.3727 44.6273C25.7081 44.2845 25.933 43.8491 26.0186 43.3772C26.1041 42.9054 26.0463 42.4187 25.8527 41.98C25.6683 41.5498 25.3622 41.1829 24.9719 40.9244C24.5817 40.666 24.1244 40.5273 23.6564 40.5255H23.4091C22.6376 40.5255 21.8976 40.219 21.3521 39.6734C20.8065 39.1278 20.5 38.3879 20.5 37.6164C20.5 36.8448 20.8065 36.1049 21.3521 35.5593C21.8976 35.0138 22.6376 34.7073 23.4091 34.7073H23.54C24.0214 34.696 24.4884 34.5402 24.8801 34.26C25.2718 33.9799 25.5701 33.5883 25.7364 33.1364C25.93 32.6976 25.9877 32.211 25.9022 31.7391C25.8166 31.2673 25.5917 30.8319 25.2564 30.4891L25.1691 30.4018C24.8986 30.1316 24.684 29.8108 24.5376 29.4576C24.3912 29.1045 24.3159 28.7259 24.3159 28.3436C24.3159 27.9613 24.3912 27.5828 24.5376 27.2296C24.684 26.8765 24.8986 26.5556 25.1691 26.2855C25.4393 26.015 25.7601 25.8004 26.1133 25.654C26.4664 25.5076 26.845 25.4323 27.2273 25.4323C27.6096 25.4323 27.9881 25.5076 28.3413 25.654C28.6944 25.8004 29.0153 26.015 29.2855 26.2855L29.3727 26.3727C29.7155 26.7081 30.1509 26.933 30.6228 27.0186C31.0946 27.1041 31.5813 27.0463 32.02 26.8527H32.1364C32.5666 26.6683 32.9335 26.3622 33.1919 25.9719C33.4504 25.5817 33.589 25.1244 33.5909 24.6564V24.4091C33.5909 23.6376 33.8974 22.8976 34.443 22.3521C34.9885 21.8065 35.7285 21.5 36.5 21.5C37.2715 21.5 38.0115 21.8065 38.557 22.3521C39.1026 22.8976 39.4091 23.6376 39.4091 24.4091V24.54C39.411 25.0081 39.5496 25.4653 39.8081 25.8556C40.0665 26.2458 40.4334 26.552 40.8636 26.7364C41.3024 26.93 41.789 26.9877 42.2609 26.9022C42.7327 26.8166 43.1681 26.5917 43.5109 26.2564L43.5982 26.1691C43.8684 25.8986 44.1892 25.684 44.5424 25.5376C44.8955 25.3912 45.2741 25.3159 45.6564 25.3159C46.0387 25.3159 46.4172 25.3912 46.7704 25.5376C47.1235 25.684 47.4444 25.8986 47.7145 26.1691C47.985 26.4393 48.1996 26.7601 48.346 27.1133C48.4924 27.4664 48.5677 27.845 48.5677 28.2273C48.5677 28.6096 48.4924 28.9881 48.346 29.3413C48.1996 29.6944 47.985 30.0153 47.7145 30.2855L47.6273 30.3727C47.2919 30.7155 47.067 31.1509 46.9814 31.6228C46.8959 32.0946 46.9537 32.5813 47.1473 33.02V33.1364C47.3317 33.5666 47.6378 33.9335 48.0281 34.1919C48.4183 34.4504 48.8756 34.589 49.3436 34.5909H49.5909C50.3624 34.5909 51.1024 34.8974 51.6479 35.443C52.1935 35.9885 52.5 36.7285 52.5 37.5C52.5 38.2715 52.1935 39.0115 51.6479 39.557C51.1024 40.1026 50.3624 40.4091 49.5909 40.4091H49.46C48.9919 40.411 48.5347 40.5496 48.1444 40.8081C47.7542 41.0665 47.448 41.4334 47.2636 41.8636Z" stroke="#3196FF" stroke-width="3" stroke-linecap="round" stroke-linejoin="round"/>
</g>
<defs>
<linearGradient id="paint0_linear_26_683" x1="61.34" y1="10.22" x2="14.18" y2="64.58" gradientUnits="userSpaceOnUse">
<stop stop-color="#101010"/>
<stop offset="1" stop-color="#1D1D1D"/>
</linearGradient>
<clipPath id="clip0_26_683">
<rect width="72" height="72" fill="white" transform="translate(0.5 0.5)"/>
</clipPath>
</defs>
</svg>
