<svg width="72" height="72" viewBox="0 0 72 72" fill="none" xmlns="http://www.w3.org/2000/svg">
<g clip-path="url(#clip0_26_68)">
<path d="M54.9231 0H17.0769C7.64559 0 0 7.64559 0 17.0769V54.9231C0 64.3544 7.64559 72 17.0769 72H54.9231C64.3544 72 72 64.3544 72 54.9231V17.0769C72 7.64559 64.3544 0 54.9231 0Z" fill="url(#paint0_linear_26_68)"/>
<path d="M52.0028 24.4966V33.4974H43.002" stroke="#3196FF" stroke-width="3.00026" stroke-linecap="round" stroke-linejoin="round"/>
<path d="M19 48.4986V39.4978H28.0008" stroke="#3196FF" stroke-width="3.00026" stroke-linecap="round" stroke-linejoin="round"/>
<path d="M22.7653 31.9972C23.5261 29.8472 24.8192 27.925 26.5239 26.4099C28.2285 24.8948 30.2892 23.8362 32.5136 23.3329C34.738 22.8296 37.0537 22.898 39.2446 23.5317C41.4354 24.1654 43.43 25.3437 45.0423 26.9568L52.0029 33.4974M19 39.4979L25.9606 46.0385C27.5729 47.6515 29.5675 48.8299 31.7583 49.4636C33.9492 50.0973 36.2649 50.1657 38.4893 49.6624C40.7137 49.1591 42.7744 48.1005 44.479 46.5854C46.1837 45.0703 47.4767 43.148 48.2376 40.998" stroke="#3196FF" stroke-width="3.00026" stroke-linecap="round" stroke-linejoin="round"/>
</g>
<defs>
<linearGradient id="paint0_linear_26_68" x1="60.84" y1="9.72" x2="13.68" y2="64.08" gradientUnits="userSpaceOnUse">
<stop stop-color="#101010"/>
<stop offset="1" stop-color="#1D1D1D"/>
</linearGradient>
<clipPath id="clip0_26_68">
<rect width="72" height="72" fill="white"/>
</clipPath>
</defs>
</svg>
