<svg width="89" height="71" viewBox="0 0 89 71" fill="none" xmlns="http://www.w3.org/2000/svg">
<mask id="path-1-inside-1_27_736" fill="white">
<path fill-rule="evenodd" clip-rule="evenodd" d="M38.5 67C55.3447 67 69 53.3447 69 36.5C69 19.6553 55.3447 6 38.5 6C21.6553 6 8 19.6553 8 36.5C8 53.3447 21.6553 67 38.5 67ZM60.9459 33.3349C58.1019 36.6606 54.096 38.7317 49.6578 38.7317C41.03 38.7317 34.0358 30.9049 34.0358 21.25C34.0358 18.821 34.4785 16.5077 35.2785 14.4056C24.4672 16.0476 16.1826 25.3825 16.1826 36.6524C16.1826 39.9406 16.8878 43.0641 18.1554 45.8798C19.4412 44.6836 21.2483 43.9392 23.2497 43.9392C27.1527 43.9392 30.3167 46.7702 30.3167 50.2624C30.3167 52.6074 28.8901 54.6542 26.771 55.7459C30.2262 57.9066 34.3101 59.1554 38.6856 59.1554C51.1137 59.1554 61.1887 49.0805 61.1887 36.6524C61.1887 35.5253 61.1058 34.4175 60.9459 33.3349Z"/>
</mask>
<path fill-rule="evenodd" clip-rule="evenodd" d="M38.5 67C55.3447 67 69 53.3447 69 36.5C69 19.6553 55.3447 6 38.5 6C21.6553 6 8 19.6553 8 36.5C8 53.3447 21.6553 67 38.5 67ZM60.9459 33.3349C58.1019 36.6606 54.096 38.7317 49.6578 38.7317C41.03 38.7317 34.0358 30.9049 34.0358 21.25C34.0358 18.821 34.4785 16.5077 35.2785 14.4056C24.4672 16.0476 16.1826 25.3825 16.1826 36.6524C16.1826 39.9406 16.8878 43.0641 18.1554 45.8798C19.4412 44.6836 21.2483 43.9392 23.2497 43.9392C27.1527 43.9392 30.3167 46.7702 30.3167 50.2624C30.3167 52.6074 28.8901 54.6542 26.771 55.7459C30.2262 57.9066 34.3101 59.1554 38.6856 59.1554C51.1137 59.1554 61.1887 49.0805 61.1887 36.6524C61.1887 35.5253 61.1058 34.4175 60.9459 33.3349Z" fill="white"/>
<path d="M60.9459 33.3349L63.5907 32.9441L62.732 27.1326L58.914 31.5973L60.9459 33.3349ZM35.2785 14.4056L37.7772 15.3565L39.407 11.0743L34.8771 11.7623L35.2785 14.4056ZM18.1554 45.8798L15.7175 46.9773L17.2475 50.3761L19.9764 47.8373L18.1554 45.8798ZM26.771 55.7459L25.5465 53.3693L21.3694 55.5214L25.3535 58.0128L26.771 55.7459ZM66.3265 36.5C66.3265 51.8681 53.8681 64.3265 38.5 64.3265V69.6735C56.8212 69.6735 71.6735 54.8212 71.6735 36.5H66.3265ZM38.5 8.67355C53.8681 8.67355 66.3265 21.1319 66.3265 36.5H71.6735C71.6735 18.1788 56.8212 3.32645 38.5 3.32645V8.67355ZM10.6735 36.5C10.6735 21.1319 23.1319 8.67355 38.5 8.67355V3.32645C20.1788 3.32645 5.32645 18.1788 5.32645 36.5H10.6735ZM38.5 64.3265C23.1319 64.3265 10.6735 51.8681 10.6735 36.5H5.32645C5.32645 54.8212 20.1788 69.6735 38.5 69.6735V64.3265ZM49.6578 41.4053C54.9639 41.4053 59.6848 38.9232 62.9778 35.0725L58.914 31.5973C56.5189 34.398 53.228 36.0582 49.6578 36.0582V41.4053ZM31.3623 21.25C31.3623 32.0907 39.2786 41.4053 49.6578 41.4053V36.0582C42.7814 36.0582 36.7093 29.719 36.7093 21.25H31.3623ZM32.7798 13.4546C31.8644 15.8598 31.3623 18.4954 31.3623 21.25H36.7093C36.7093 19.1466 37.0926 17.1555 37.7772 15.3565L32.7798 13.4546ZM18.8561 36.6524C18.8561 26.7239 26.1555 18.4954 35.68 17.0488L34.8771 11.7623C22.7789 13.5998 13.509 24.0411 13.509 36.6524H18.8561ZM20.5933 44.7824C19.478 42.3049 18.8561 39.5548 18.8561 36.6524H13.509C13.509 40.3263 14.2977 43.8233 15.7175 46.9773L20.5933 44.7824ZM23.2497 41.2657C20.5865 41.2657 18.125 42.2565 16.3343 43.9224L19.9764 47.8373C20.7574 47.1107 21.91 46.6128 23.2497 46.6128V41.2657ZM32.9903 50.2624C32.9903 45.0218 28.3418 41.2657 23.2497 41.2657V46.6128C25.9635 46.6128 27.6432 48.5187 27.6432 50.2624H32.9903ZM27.9955 58.1226C30.8667 56.6434 32.9903 53.7545 32.9903 50.2624H27.6432C27.6432 51.4603 26.9135 52.665 25.5465 53.3693L27.9955 58.1226ZM38.6856 56.4819C34.8258 56.4819 31.2311 55.3817 28.1885 53.4791L25.3535 58.0128C29.2213 60.4315 33.7944 61.829 38.6856 61.829V56.4819ZM58.5151 36.6524C58.5151 47.6039 49.6372 56.4819 38.6856 56.4819V61.829C52.5903 61.829 63.8622 50.557 63.8622 36.6524H58.5151ZM58.301 33.7257C58.4419 34.6794 58.5151 35.6565 58.5151 36.6524H63.8622C63.8622 35.3941 63.7697 34.1557 63.5907 32.9441L58.301 33.7257Z" fill="white" mask="url(#path-1-inside-1_27_736)"/>
</svg>
