<svg width="89" height="71" viewBox="0 0 89 71" fill="none" xmlns="http://www.w3.org/2000/svg">
<mask id="path-1-inside-1_27_713" fill="white">
<path fill-rule="evenodd" clip-rule="evenodd" d="M44.5 68C61.3447 68 75 54.3447 75 37.5C75 20.6553 61.3447 7 44.5 7C27.6553 7 14 20.6553 14 37.5C14 54.3447 27.6553 68 44.5 68ZM66.9459 34.3349C64.1019 37.6606 60.096 39.7317 55.6578 39.7317C47.03 39.7317 40.0358 31.9049 40.0358 22.25C40.0358 19.821 40.4785 17.5077 41.2785 15.4056C30.4672 17.0476 22.1826 26.3825 22.1826 37.6524C22.1826 40.9406 22.8878 44.0641 24.1554 46.8798C25.4412 45.6836 27.2483 44.9392 29.2497 44.9392C33.1527 44.9392 36.3167 47.7702 36.3167 51.2624C36.3167 53.6074 34.8901 55.6542 32.771 56.7459C36.2262 58.9066 40.3101 60.1554 44.6856 60.1554C57.1137 60.1554 67.1887 50.0805 67.1887 37.6524C67.1887 36.5253 67.1058 35.4175 66.9459 34.3349Z"/>
</mask>
<path fill-rule="evenodd" clip-rule="evenodd" d="M44.5 68C61.3447 68 75 54.3447 75 37.5C75 20.6553 61.3447 7 44.5 7C27.6553 7 14 20.6553 14 37.5C14 54.3447 27.6553 68 44.5 68ZM66.9459 34.3349C64.1019 37.6606 60.096 39.7317 55.6578 39.7317C47.03 39.7317 40.0358 31.9049 40.0358 22.25C40.0358 19.821 40.4785 17.5077 41.2785 15.4056C30.4672 17.0476 22.1826 26.3825 22.1826 37.6524C22.1826 40.9406 22.8878 44.0641 24.1554 46.8798C25.4412 45.6836 27.2483 44.9392 29.2497 44.9392C33.1527 44.9392 36.3167 47.7702 36.3167 51.2624C36.3167 53.6074 34.8901 55.6542 32.771 56.7459C36.2262 58.9066 40.3101 60.1554 44.6856 60.1554C57.1137 60.1554 67.1887 50.0805 67.1887 37.6524C67.1887 36.5253 67.1058 35.4175 66.9459 34.3349Z" fill="#3196FF"/>
<path d="M66.9459 34.3349L69.5907 33.9441L68.732 28.1326L64.914 32.5973L66.9459 34.3349ZM41.2785 15.4056L43.7772 16.3565L45.407 12.0743L40.8771 12.7623L41.2785 15.4056ZM24.1554 46.8798L21.7175 47.9773L23.2475 51.3761L25.9764 48.8373L24.1554 46.8798ZM32.771 56.7459L31.5465 54.3693L27.3694 56.5214L31.3535 59.0128L32.771 56.7459ZM72.3265 37.5C72.3265 52.8681 59.8681 65.3265 44.5 65.3265V70.6735C62.8212 70.6735 77.6735 55.8212 77.6735 37.5H72.3265ZM44.5 9.67355C59.8681 9.67355 72.3265 22.1319 72.3265 37.5H77.6735C77.6735 19.1788 62.8212 4.32645 44.5 4.32645V9.67355ZM16.6735 37.5C16.6735 22.1319 29.1319 9.67355 44.5 9.67355V4.32645C26.1788 4.32645 11.3265 19.1788 11.3265 37.5H16.6735ZM44.5 65.3265C29.1319 65.3265 16.6735 52.8681 16.6735 37.5H11.3265C11.3265 55.8212 26.1788 70.6735 44.5 70.6735V65.3265ZM55.6578 42.4053C60.9639 42.4053 65.6848 39.9232 68.9778 36.0725L64.914 32.5973C62.5189 35.398 59.228 37.0582 55.6578 37.0582V42.4053ZM37.3623 22.25C37.3623 33.0907 45.2786 42.4053 55.6578 42.4053V37.0582C48.7814 37.0582 42.7093 30.719 42.7093 22.25H37.3623ZM38.7798 14.4546C37.8644 16.8598 37.3623 19.4954 37.3623 22.25H42.7093C42.7093 20.1466 43.0926 18.1555 43.7772 16.3565L38.7798 14.4546ZM24.8561 37.6524C24.8561 27.7239 32.1555 19.4954 41.68 18.0488L40.8771 12.7623C28.7789 14.5998 19.509 25.0411 19.509 37.6524H24.8561ZM26.5933 45.7824C25.478 43.3049 24.8561 40.5548 24.8561 37.6524H19.509C19.509 41.3263 20.2977 44.8233 21.7175 47.9773L26.5933 45.7824ZM29.2497 42.2657C26.5865 42.2657 24.125 43.2565 22.3343 44.9224L25.9764 48.8373C26.7574 48.1107 27.91 47.6128 29.2497 47.6128V42.2657ZM38.9903 51.2624C38.9903 46.0218 34.3418 42.2657 29.2497 42.2657V47.6128C31.9635 47.6128 33.6432 49.5187 33.6432 51.2624H38.9903ZM33.9955 59.1226C36.8667 57.6434 38.9903 54.7545 38.9903 51.2624H33.6432C33.6432 52.4603 32.9135 53.665 31.5465 54.3693L33.9955 59.1226ZM44.6856 57.4819C40.8258 57.4819 37.2311 56.3817 34.1885 54.4791L31.3535 59.0128C35.2213 61.4315 39.7944 62.829 44.6856 62.829V57.4819ZM64.5151 37.6524C64.5151 48.6039 55.6372 57.4819 44.6856 57.4819V62.829C58.5903 62.829 69.8622 51.557 69.8622 37.6524H64.5151ZM64.301 34.7257C64.4419 35.6794 64.5151 36.6565 64.5151 37.6524H69.8622C69.8622 36.3941 69.7697 35.1557 69.5907 33.9441L64.301 34.7257Z" fill="#3196FF" mask="url(#path-1-inside-1_27_713)"/>
</svg>
